<?xml version="1.0" encoding="UTF-8"?>
<svg width="15px" height="15px" viewBox="0 0 15 15" version="1.1" xmlns="http://www.w3.org/2000/svg" xmlns:xlink="http://www.w3.org/1999/xlink">
    <!-- Generator: Sketch 45 (43475) - http://www.bohemiancoding.com/sketch -->
    <title>ball</title>
    <desc>Created with Sketch.</desc>
    <defs></defs>
    <g id="Page-1" stroke="none" stroke-width="1" fill="none" fill-rule="evenodd">
        <path d="M7.5,15 C3.36447412,15 0,11.6355259 0,7.5 C0,3.36447412 3.36447412,0 7.5,0 C11.6355259,0 15,3.36447412 15,7.5 C15,11.6355259 11.6355064,15 7.5,15 Z M13.8251402,8.52664969 C13.6059698,8.45746676 11.8422739,7.93144601 9.83471881,8.25278919 C10.6726487,10.5552995 11.0135827,12.4307194 11.0792303,12.820308 C12.5165047,11.8485241 13.5395995,10.3091356 13.8251402,8.52664969 L13.8251402,8.52664969 Z M10.0023634,13.4068003 C9.90708549,12.8447623 9.53513446,10.8859595 8.63575636,8.54877963 C8.62165414,8.55358454 8.60759098,8.55815507 8.59348876,8.56305764 C4.98019438,9.8221401 3.68310233,12.3279216 3.56786256,12.5635967 C5.40035947,13.9924588 7.86357564,14.3152488 10.0023634,13.4068003 L10.0023634,13.4068003 Z M2.74071441,11.7931309 C2.88581887,11.5447208 4.64396769,8.63366642 7.94787256,7.56572574 C8.03136605,7.53873228 8.11551062,7.51334047 8.20030626,7.48955029 C8.03949795,7.12564651 7.86435302,6.76131303 7.68094598,6.40240949 C4.48177258,7.35983718 1.37738878,7.3198353 1.09710221,7.31407332 C1.09514899,7.37911543 1.09384034,7.4443138 1.09384034,7.50982468 C1.09260528,9.09242394 1.67955634,10.6190076 2.74071441,11.7931309 L2.74071441,11.7931309 Z M1.22915918,6.19771239 C1.51567652,6.2014821 4.15507758,6.21294748 7.1515657,5.41718752 C6.09010969,3.53038033 4.94532947,1.94389971 4.77645437,1.71228729 C2.98428051,2.55763942 1.64454974,4.20980671 1.22915918,6.19771239 Z M5.99877729,1.2817007 C6.1758559,1.51878213 7.33934794,3.1032314 8.38910418,5.03187649 C10.667043,4.17806694 11.6314437,2.88191243 11.7466834,2.71780318 C10.1811003,1.32746403 8.03431102,0.791093159 5.99877729,1.2817007 Z M12.4587676,3.45865822 C12.3237222,3.64142069 11.250293,5.01750082 8.88162726,5.98453834 C9.03069675,6.28968936 9.17359407,6.60003594 9.30664719,6.9124334 C9.35379783,7.02311567 9.39979608,7.13331615 9.44464194,7.24303483 C11.5762262,6.97501445 13.6941771,7.40456584 13.9053784,7.4492359 C13.8931184,5.99286055 13.3826073,4.5845799 12.4587676,3.45865822 Z" id="ball" fill="#C3CBCE" fill-rule="nonzero"></path>
    </g>
</svg>