<?xml version="1.0" encoding="UTF-8"?>
<svg width="15px" height="15px" viewBox="0 0 15 15" version="1.1" xmlns="http://www.w3.org/2000/svg" xmlns:xlink="http://www.w3.org/1999/xlink">
    <!-- Generator: Sketch 45 (43475) - http://www.bohemiancoding.com/sketch -->
    <title>Shape</title>
    <desc>Created with Sketch.</desc>
    <defs></defs>
    <g id="Page-1" stroke="none" stroke-width="1" fill="none" fill-rule="evenodd">
        <path d="M7.5,0.1875 C3.375,0.1875 0,3.5625 0,7.6875 C0,11.015625 2.15625,13.828125 5.109375,14.8125 C5.484375,14.859375 5.625,14.671875 5.625,14.4375 C5.625,14.25 5.625,13.78125 5.625,13.171875 C3.515625,13.640625 3.09375,12.1875 3.09375,12.1875 C2.765625,11.34375 2.25,11.109375 2.25,11.109375 C1.546875,10.640625 2.296875,10.640625 2.296875,10.640625 C3.046875,10.6875 3.46875,11.390625 3.46875,11.390625 C4.125,12.515625 5.203125,12.1875 5.671875,12 C5.71875,11.53125 5.953125,11.203125 6.140625,11.015625 C4.453125,10.828125 2.71875,10.171875 2.71875,7.3125 C2.71875,6.515625 3,5.8125 3.46875,5.296875 C3.375,5.109375 3.140625,4.359375 3.5625,3.328125 C3.5625,3.328125 4.171875,3.140625 5.625,4.078125 C6.234375,3.890625 6.84375,3.84375 7.5,3.84375 C8.15625,3.84375 8.765625,3.9375 9.375,4.078125 C10.828125,3.09375 11.4375,3.28125 11.4375,3.28125 C11.859375,4.3125 11.578125,5.0625 11.53125,5.25 C12,5.765625 12.28125,6.421875 12.28125,7.265625 C12.28125,10.125 10.546875,10.78125 8.859375,10.96875 C9.140625,11.203125 9.375,11.671875 9.375,12.375 C9.375,13.359375 9.375,14.203125 9.375,14.4375 C9.375,14.625 9.515625,14.859375 9.890625,14.8125 C12.84375,13.828125 15,11.015625 15,7.6875 C15,3.5625 11.625,0.1875 7.5,0.1875 Z" id="Shape" fill="#C3CBCE"></path>
    </g>
</svg>