<?xml version="1.0" encoding="UTF-8"?>
<svg width="15px" height="15px" viewBox="0 0 15 15" version="1.1" xmlns="http://www.w3.org/2000/svg" xmlns:xlink="http://www.w3.org/1999/xlink">
    <!-- Generator: Sketch 45 (43475) - http://www.bohemiancoding.com/sketch -->
    <title>Shape</title>
    <desc>Created with Sketch.</desc>
    <defs></defs>
    <g id="Page-1" stroke="none" stroke-width="1" fill="none" fill-rule="evenodd">
        <path d="M13.21875,0 L1.78125,0 C0.796875,0 0,0.796875 0,1.78125 L0,13.21875 C0,14.203125 0.796875,15 1.78125,15 L13.21875,15 C14.203125,15 15,14.203125 15,13.21875 L15,1.78125 C15,0.796875 14.203125,0 13.21875,0 Z M11.25,1.875 L12.65625,1.875 C12.9375,1.875 13.125,2.0625 13.125,2.34375 L13.125,3.75 C13.125,4.03125 12.9375,4.21875 12.65625,4.21875 L11.25,4.21875 C10.96875,4.21875 10.78125,4.03125 10.78125,3.75 L10.78125,2.34375 C10.78125,2.0625 10.96875,1.875 11.25,1.875 Z M7.5,4.640625 C9.09375,4.640625 10.40625,5.90625 10.40625,7.5 C10.40625,9.09375 9.09375,10.359375 7.5,10.359375 C5.90625,10.359375 4.59375,9.09375 4.59375,7.5 C4.640625,5.90625 5.90625,4.640625 7.5,4.640625 Z M13.125,13.59375 L1.875,13.59375 C1.59375,13.59375 1.40625,13.40625 1.40625,13.125 L1.40625,6.09375 L3.28125,6.09375 C3.046875,6.46875 2.953125,7.078125 2.953125,7.5 C2.953125,10.03125 5.015625,12.046875 7.5,12.046875 C10.03125,12.046875 12.046875,9.984375 12.046875,7.5 C12.046875,7.078125 12,6.421875 11.671875,6.09375 L13.546875,6.09375 L13.546875,13.125 C13.59375,13.40625 13.40625,13.59375 13.125,13.59375 Z" id="Shape" fill="#C3CBCE" fill-rule="nonzero"></path>
    </g>
</svg>