<?xml version="1.0" encoding="UTF-8"?>
<svg width="16px" height="15px" viewBox="0 0 16 15" version="1.1" xmlns="http://www.w3.org/2000/svg" xmlns:xlink="http://www.w3.org/1999/xlink">
    <!-- Generator: Sketch 45 (43475) - http://www.bohemiancoding.com/sketch -->
    <title>Shape</title>
    <desc>Created with Sketch.</desc>
    <defs></defs>
    <g id="Page-1" stroke="none" stroke-width="1" fill="none" fill-rule="evenodd">
        <path d="M14.890625,0 L1.109375,0 C0.78125,0 0.5,0.28125 0.5,0.609375 L0.5,14.34375 C0.5,14.71875 0.78125,15 1.109375,15 L14.84375,15 C15.171875,15 15.453125,14.71875 15.453125,14.390625 L15.453125,0.609375 C15.5,0.28125 15.21875,0 14.890625,0 Z M4.953125,12.796875 L2.703125,12.796875 L2.703125,5.625 L4.953125,5.625 L4.953125,12.796875 Z M3.828125,4.640625 C3.125,4.640625 2.515625,4.078125 2.515625,3.328125 C2.515625,2.625 3.078125,2.015625 3.828125,2.015625 C4.53125,2.015625 5.140625,2.578125 5.140625,3.328125 C5.140625,4.078125 4.53125,4.640625 3.828125,4.640625 Z M13.296875,12.796875 L11.09375,12.796875 L11.09375,9.328125 C11.09375,8.484375 11.09375,7.453125 9.921875,7.453125 C8.75,7.453125 8.609375,8.34375 8.609375,9.28125 L8.609375,12.84375 L6.40625,12.84375 L6.40625,5.625 L8.46875,5.625 L8.46875,6.609375 L8.515625,6.609375 C8.796875,6.046875 9.546875,5.4375 10.625,5.4375 C12.875,5.4375 13.296875,6.9375 13.296875,8.859375 L13.296875,12.796875 Z" id="Shape" fill="#C3CBCE" fill-rule="nonzero"></path>
    </g>
</svg>