<?xml version="1.0" encoding="UTF-8"?>
<svg width="16px" height="13px" viewBox="0 0 16 13" version="1.1" xmlns="http://www.w3.org/2000/svg" xmlns:xlink="http://www.w3.org/1999/xlink">
    <!-- Generator: Sketch 45 (43475) - http://www.bohemiancoding.com/sketch -->
    <title>Shape</title>
    <desc>Created with Sketch.</desc>
    <defs></defs>
    <g id="Page-1" stroke="none" stroke-width="1" fill="none" fill-rule="evenodd">
        <path d="M15.5,1.5030303 C14.9181818,1.74545455 14.3363636,1.93939394 13.6575758,1.98787879 C14.3363636,1.6 14.8212121,0.96969697 15.0636364,0.242424242 C14.4333333,0.63030303 13.7545455,0.872727273 13.0272727,1.01818182 C12.4454545,0.387878788 11.6212121,0 10.7484848,0 C9.0030303,0 7.54848485,1.40606061 7.54848485,3.2 C7.54848485,3.44242424 7.5969697,3.68484848 7.64545455,3.92727273 C4.97878788,3.78181818 2.65151515,2.52121212 1.05151515,0.581818182 C0.760606061,1.06666667 0.615151515,1.6 0.615151515,2.18181818 C0.615151515,3.2969697 1.1969697,4.26666667 2.02121212,4.84848485 C1.48787879,4.84848485 1.0030303,4.7030303 0.566666667,4.46060606 C0.566666667,4.46060606 0.566666667,4.50909091 0.566666667,4.50909091 C0.566666667,6.06060606 1.68181818,7.32121212 3.13636364,7.61212121 C2.84545455,7.66060606 2.6030303,7.70909091 2.31212121,7.70909091 C2.11818182,7.70909091 1.92424242,7.70909091 1.73030303,7.66060606 C2.11818182,8.92121212 3.33030303,9.84242424 4.68787879,9.89090909 C3.62121212,10.7636364 2.21515152,11.2484848 0.712121212,11.2484848 C0.46969697,11.2484848 0.178787879,11.2484848 -0.0636363636,11.2 C1.39090909,12.0727273 3.08787879,12.6060606 4.88181818,12.6060606 C10.7484848,12.6060606 13.9484848,7.75757576 13.9484848,3.53939394 C13.9484848,3.39393939 13.9484848,3.24848485 13.9484848,3.15151515 C14.530303,2.66666667 15.0636364,2.13333333 15.5,1.5030303 Z" id="Shape" fill="#C3CBCE" fill-rule="nonzero"></path>
    </g>
</svg>